<svg width="23" height="11" viewBox="0 0 23 11" fill="none" xmlns="http://www.w3.org/2000/svg">
<g clip-path="url(#clip0_255_834)">
<path d="M16.6205 0.474731H3.3274C1.75421 0.474731 0.478882 1.75006 0.478882 3.32325V7.12129C0.478882 8.69448 1.75421 9.96981 3.3274 9.96981H16.6205C18.1937 9.96981 19.469 8.69448 19.469 7.12129V3.32325C19.469 1.75006 18.1937 0.474731 16.6205 0.474731Z" stroke="white" stroke-width="0.949508"/>
<path d="M12.8225 1.89905H3.3274C2.5408 1.89905 1.90314 2.53671 1.90314 3.32331V7.12134C1.90314 7.90794 2.5408 8.5456 3.3274 8.5456H12.8225C13.6091 8.5456 14.2467 7.90794 14.2467 7.12134V3.32331C14.2467 2.53671 13.6091 1.89905 12.8225 1.89905Z" fill="white"/>
<path d="M20.8932 3.32324C21.6798 3.32324 22.3175 3.9609 22.3175 4.7475V5.69701C22.3175 6.48361 21.6798 7.12127 20.8932 7.12127V3.32324Z" fill="white"/>
</g>
<defs>
<clipPath id="clip0_255_834">
<rect width="22.7964" height="10.4446" fill="white"/>
</clipPath>
</defs>
</svg>
